<svg preserveAspectRatio="none" overflow="visible" style="display: block;" width="192.143" height="125.942" viewBox="0 0 192.143 125.942" fill="none" xmlns="http://www.w3.org/2000/svg">
<g id="Layer_1" clip-path="url(#clip0_0_23)">
<path id="Vector" d="M3.60887 90.9778L116.971 90.9015C118.67 90.9015 120.145 89.8795 120.145 88.2577L120.13 27.6787L145.075 27.7499C149.158 27.7601 152.465 30.6123 153.828 34.273L162.162 59.4045C165.545 69.6086 180.769 62.6178 180.988 74.8454L181.381 96.8348C181.412 98.4465 184.999 98.6448 186.097 98.1364L186.24 106.968L175.191 107.069C173.185 107.09 172.68 109.551 173.205 110.878C173.619 111.92 174.782 112.779 176.395 112.754L189.046 112.56C190.955 112.53 192.18 110.903 192.144 109.088L191.858 95.035C191.823 93.2504 189.128 92.4369 187.087 92.5895L186.786 73.2439C186.571 59.6841 169.306 60.9654 168.332 58.0928L160.018 33.6527C157.967 27.6126 153.139 21.9844 146.346 21.9335L117.221 21.7301C115.598 21.72 114.164 23.2046 114.164 24.8214L114.174 84.841C112.266 85.1817 110.801 85.2275 109.719 84.5055L109.729 2.53707C109.719 1.34735 108.555 2.04054e-05 107.28 2.04054e-05L10.1259 0.0101889C8.15601 0.0101889 7.21698 1.62698 7.19657 2.74044C7.16595 4.33181 7.9876 5.58762 9.99834 5.85709L103.896 5.87234L103.794 85.0546L2.80253 85.0037C0.505995 85.2478 -0.27993 87.0527 0.0875158 88.7508C0.403927 90.21 1.53688 90.9777 3.60887 90.9727V90.9778Z" fill="#B4AB4E"/>
<path id="Vector_2" d="M145.723 39.4589C147.963 39.4539 149.484 38.0862 149.367 36.1898C149.265 34.4662 147.958 33.3375 145.891 33.3426L128.254 33.368C126.753 33.368 125.421 34.5628 125.421 36.0932L125.457 61.7788C125.457 63.2533 126.804 64.4684 128.274 64.4633L154.598 64.3718C156.287 64.3667 156.69 61.9212 156.465 60.9247C156.124 59.4045 154.991 58.5402 152.663 58.5351L131.306 58.4995L131.331 39.4895L145.718 39.4539L145.723 39.4589Z" fill="#B4AB4E"/>
<path id="Vector_3" d="M137.624 106.881H82.3589V112.738H137.624V106.881Z" fill="#B4AB4E"/>
<path id="Vector_4" d="M16.438 110.41C16.438 118.936 23.3786 125.851 31.937 125.851C40.4955 125.851 47.4361 118.936 47.4361 110.41C47.4361 101.884 40.4955 94.9689 31.937 94.9689C23.3786 94.9689 16.438 101.884 16.438 110.41ZM41.4753 110.486C41.4753 115.764 37.1834 120.039 31.886 120.039C26.5887 120.039 22.2967 115.764 22.2967 110.486C22.2967 105.209 26.5887 100.933 31.886 100.933C37.1834 100.933 41.4753 105.209 41.4753 110.486Z" fill="#B4AB4E"/>
<path id="Vector_5" d="M64.4458 94.9994C55.8721 94.9994 48.9213 101.924 48.9213 110.466C48.9213 119.007 55.8721 125.932 64.4458 125.932C73.0196 125.932 79.9704 119.007 79.9704 110.466C79.9704 101.924 73.0196 94.9994 64.4458 94.9994ZM64.4918 120.121C59.1893 120.121 54.8871 115.84 54.8871 110.552C54.8871 105.265 59.1842 100.984 64.4918 100.984C69.7993 100.984 74.0964 105.265 74.0964 110.552C74.0964 115.84 69.7993 120.121 64.4918 120.121Z" fill="#B4AB4E"/>
<path id="Vector_6" d="M171.26 110.517C171.26 101.995 164.33 95.0909 155.776 95.0909C147.223 95.0909 140.293 101.995 140.293 110.517C140.293 119.038 147.223 125.942 155.776 125.942C164.33 125.942 171.26 119.038 171.26 110.517ZM155.776 120.09C150.479 120.09 146.182 115.809 146.182 110.532C146.182 105.254 150.479 100.973 155.776 100.973C161.074 100.973 165.371 105.254 165.371 110.532C165.371 115.809 161.074 120.09 155.776 120.09Z" fill="#B4AB4E"/>
</g>
<defs>
<clipPath id="clip0_0_23">
<rect width="192.143" height="125.942" fill="white"/>
</clipPath>
</defs>
</svg>
