<svg preserveAspectRatio="none" overflow="visible" style="display: block;" width="28.7302" height="28.7302" viewBox="0 0 28.7302 28.7302" fill="none" xmlns="http://www.w3.org/2000/svg">
<g id="Icon/Personal">
<mask id="mask0_0_584" style="mask-type:alpha" maskUnits="userSpaceOnUse" x="0" y="0" width="29" height="29">
<rect id="Bounding box" width="28.7302" height="28.7302" fill="#D9D9D9"/>
</mask>
<g mask="url(#mask0_0_584)">
<path id="cottage" d="M4.78837 24.7944V13.5716L2.6336 15.2176L1.19709 13.3023L4.78837 10.549V6.838H7.18255V8.72342L14.3651 3.24673L27.5331 13.3023L26.0966 15.1877L23.9418 13.5716V24.7944H4.78837ZM7.18255 22.4002H13.168V17.6118H15.5622V22.4002H21.5477V11.7461L14.3651 6.26938L7.18255 11.7461V22.4002ZM4.78837 5.64091C4.78837 4.64333 5.13752 3.79539 5.83582 3.09709C6.53413 2.39879 7.38207 2.04963 8.37965 2.04963C8.71882 2.04963 9.00313 1.93491 9.23257 1.70547C9.46202 1.47603 9.57674 1.19172 9.57674 0.852542H11.9709C11.9709 1.85012 11.6218 2.69806 10.9235 3.39636C10.2252 4.09467 9.37722 4.44382 8.37965 4.44382C8.04047 4.44382 7.75616 4.55854 7.52672 4.78798C7.29727 5.01743 7.18255 5.30173 7.18255 5.64091H4.78837Z" fill="#0F0F0F"/>
</g>
</g>
</svg>
