<svg preserveAspectRatio="none" overflow="visible" style="display: block;" width="129.553" height="87.0435" viewBox="0 0 129.553 87.0435" fill="none" xmlns="http://www.w3.org/2000/svg">
<g id="Layer_1" clip-path="url(#clip0_0_4)">
<g id="Group">
<path id="Vector" d="M54.59 49.114L33.0741 16.9311L66.5267 17.3652L65.6455 49.3767L54.59 49.114Z" fill="white"/>
<path id="Vector_2" d="M32.1697 17.7871L65.1505 18.1834L64.2597 47.9296L53.7016 47.6874L32.1697 17.7871ZM29.9251 16.6642L53.0484 48.7772L65.4118 49.0525L66.3619 17.0936L29.9251 16.6642Z" fill="black"/>
</g>
<g id="Group_2">
<path id="Vector_3" d="M40.8458 36.8212C37.5727 33.5995 34.288 30.3778 30.9004 26.9733L30.4999 26.5734L30.0993 26.9733C26.5858 30.4692 22.9464 33.8851 19.4215 37.1868C17.6361 38.8662 16.3314 39.9858 15.0725 41.0712C13.2643 42.6249 11.6964 43.973 9.25867 46.4864L1.28177 46.018C5.77951 41.3796 10.7922 36.2614 14.8665 32.4342C19.2842 28.2985 23.8391 24.0143 28.108 19.6159L30.4655 17.1825L32.846 19.5931C37.2408 24.0372 41.4295 28.1614 45.4809 32.1486C49.3034 35.9073 57.9212 44.5328 62.6707 49.3311L52.7368 49.5596L40.8573 36.8327L40.8458 36.8212Z" fill="white"/>
<path id="Vector_4" d="M30.4655 17.9821L32.434 19.9814C36.8059 24.4141 41.006 28.5498 45.0803 32.5484C48.651 36.0671 56.4563 43.8701 61.3202 48.7826L52.9656 48.9769L41.2235 36.4099C38.019 33.2681 34.7115 30.0121 31.301 26.5848L30.4884 25.7736L29.6759 26.5848C26.1624 30.0807 22.523 33.4966 18.998 36.7983C17.2356 38.4549 15.9309 39.5745 14.6834 40.6484C12.9095 42.1678 11.3759 43.4931 9.01832 45.9037L2.55211 45.5266C6.80951 41.1396 11.4331 36.4327 15.2556 32.8454C19.6733 28.6983 24.2511 24.4141 28.5085 20.0157L30.4655 17.9935M30.4541 16.3484L27.6845 19.2045C23.4385 23.5916 18.8836 27.8643 14.466 32C9.99111 36.2042 4.37181 41.985 -0.0114802 46.4977L9.47611 47.0461C13.7221 42.6591 15.3701 41.7337 19.7877 37.598C23.3241 34.2849 26.9635 30.869 30.4884 27.3616C33.9104 30.789 37.2064 34.0336 40.4223 37.1982L52.4735 50.1079L63.9983 49.8451C59.5806 45.3781 49.9557 35.7358 45.8814 31.7258C41.8186 27.7387 37.6299 23.603 33.2466 19.1703L30.4541 16.337V16.3484Z" fill="black"/>
</g>
<path id="Vector_5" d="M9.76246 47.2633V86.4723" stroke="black" stroke-width="1.01213" stroke-miterlimit="10"/>
<path id="Vector_6" d="M52.4173 49.6736V86.472" stroke="black" stroke-width="1.01213" stroke-miterlimit="10"/>
<path id="Vector_7" d="M1.54489 86.4721H95.7455" stroke="black" stroke-width="1.01213" stroke-miterlimit="10"/>
<g id="Group_3">
<path id="Vector_8" d="M31.587 51.5589C29.0234 51.5589 26.9405 49.4796 26.9405 46.9205C26.9405 44.3614 29.0234 42.2822 31.587 42.2822C34.1506 42.2822 36.2335 44.3614 36.2335 46.9205C36.2335 49.4796 34.1506 51.5589 31.587 51.5589Z" fill="white"/>
<path id="Vector_9" d="M31.5871 42.8419C33.8303 42.8419 35.6614 44.6698 35.6614 46.909C35.6614 49.1482 33.8303 50.9761 31.5871 50.9761C29.344 50.9761 27.5128 49.1482 27.5128 46.909C27.5128 44.6698 29.344 42.8419 31.5871 42.8419ZM31.5871 41.6994C28.7031 41.6994 26.3684 44.03 26.3684 46.909C26.3684 49.788 28.7031 52.1186 31.5871 52.1186C34.4711 52.1186 36.8059 49.788 36.8059 46.909C36.8059 44.03 34.4711 41.6994 31.5871 41.6994Z" fill="black"/>
</g>
<g id="Group_4">
<g id="Group_5">
<path id="Vector_10" d="M95.7457 82.782C79.8263 75.4018 71.9524 64.2286 68.1413 56.1401C60.0042 38.8433 62.6021 22.392 64.2273 15.7315C71.7807 15.126 78.9679 12.9439 85.5715 9.2538C89.7716 6.90035 92.4039 4.21558 94.7157 1.85071C95.0591 1.49655 95.391 1.15381 95.7343 0.811074C96.0776 1.15381 96.4095 1.49655 96.7529 1.85071C99.0647 4.21558 101.697 6.90035 105.897 9.2538C112.512 12.9439 119.688 15.126 127.241 15.7315C128.866 22.4034 131.464 38.8547 123.327 56.1401C119.528 64.2286 111.654 75.4018 95.7228 82.782H95.7457Z" fill="white"/>
<path id="Vector_11" d="M95.7456 1.62228C95.9516 1.82792 96.1576 2.03356 96.3522 2.25063C98.6983 4.64978 101.353 7.35739 105.634 9.74511C112.192 13.4124 119.31 15.6059 126.795 16.2571C128.409 23.1004 130.72 39.0947 122.824 55.8888C119.081 63.8516 111.345 74.842 95.7456 82.1537C80.1466 74.842 72.41 63.8631 68.6677 55.8888C60.7709 39.0947 63.0827 23.1004 64.6964 16.2571C72.1812 15.5945 79.2997 13.4124 85.8575 9.74511C90.1378 7.35739 92.7929 4.63835 95.1391 2.25063C95.3451 2.04498 95.5511 1.82792 95.7456 1.62228ZM95.7456 -5.1532e-06C92.9646 2.74188 90.2865 5.9636 85.2967 8.73975C76.7476 13.5152 68.7935 14.8176 63.7694 15.1718C62.6936 19.3988 58.6536 37.2896 67.6262 56.3686C76.0723 74.3394 91.7743 81.5825 95.7456 83.399C99.7169 81.5825 115.407 74.3394 123.865 56.3686C132.838 37.2896 128.786 19.4103 127.722 15.1718C122.709 14.8062 114.744 13.5152 106.195 8.73975C101.205 5.95217 98.5267 2.74188 95.7456 -5.1532e-06Z" fill="black"/>
</g>
<g id="Group_6">
<path id="Vector_12" d="M95.7457 74.2251C83.1566 68.3758 76.9307 59.5332 73.9094 53.124C67.4889 39.4832 69.4917 26.5049 70.785 21.1582C76.7705 20.667 82.4699 18.9304 87.7116 16.0058C91.0648 14.1321 93.1592 11.9957 95.0132 10.0993C95.2536 9.84794 95.4939 9.59659 95.7457 9.35668C95.986 9.59659 96.2264 9.84794 96.4782 10.0993C98.3207 11.9843 100.415 14.1207 103.78 16.0058C109.021 18.9304 114.721 20.667 120.706 21.1582C122 26.4935 124.002 39.4717 117.582 53.124C114.572 59.5332 108.346 68.3758 95.7457 74.2251Z" fill="white"/>
<path id="Vector_13" d="M95.7456 10.1793C95.8486 10.2821 95.9516 10.3963 96.066 10.4991C97.943 12.4185 100.06 14.5891 103.494 16.497C108.689 19.3988 114.32 21.1468 120.237 21.6838C121.507 27.1904 123.247 39.7231 117.055 52.8727C114.103 59.1562 108.014 67.8046 95.7456 73.5854C83.477 67.8046 77.3884 59.1562 74.4357 52.8727C68.2556 39.7231 69.9838 27.1904 71.2541 21.6838C77.171 21.1354 82.8017 19.3988 87.9976 16.497C91.431 14.5777 93.5482 12.407 95.4251 10.4991C95.5281 10.3849 95.6426 10.2821 95.7456 10.1793ZM95.7456 8.55697C93.5368 10.7391 91.4081 13.2982 87.4368 15.5031C80.6387 19.296 74.3213 20.3357 70.3271 20.6213C69.4802 23.9801 66.2528 38.2036 73.3943 53.364C80.1122 67.656 92.5869 73.4026 95.7456 74.8535C98.9043 73.4026 111.379 67.656 118.097 53.364C125.227 38.2036 122.011 23.9801 121.164 20.6213C117.181 20.3357 110.852 19.296 104.054 15.5031C100.095 13.2867 97.9659 10.7391 95.7456 8.55697Z" fill="black"/>
</g>
<g id="Vector_14">
<path d="M85.2967 43.1048L93.1249 50.0052L109.559 33.4511" fill="white"/>
<path d="M85.2967 43.1048L93.1249 50.0052L109.559 33.4511" stroke="black" stroke-width="2.02427" stroke-miterlimit="10"/>
</g>
</g>
<g id="Group_7">
<path id="Vector_15" d="M38.8886 59.745H23.7702V85.7129H38.8886V59.745Z" fill="white"/>
<path id="Vector_16" d="M38.3162 60.3162V85.1417H24.3423V60.3162H38.3162ZM39.4606 59.1737H23.1978V86.2841H39.4606V59.1737Z" fill="black"/>
</g>
</g>
<defs>
<clipPath id="clip0_0_4">
<rect width="129.553" height="87.0435" fill="white"/>
</clipPath>
</defs>
</svg>
